<svg width="512" height="512" viewBox="0 0 512 512" xmlns="http://www.w3.org/2000/svg">
  <defs>
    <linearGradient id="bg" x1="0" y1="0" x2="1" y2="1">
      <stop offset="0" stop-color="#6db8ff"/>
      <stop offset="1" stop-color="#2f6fed"/>
    </linearGradient>
  </defs>
  <rect x="48" y="48" width="416" height="416" rx="104" fill="url(#bg)"/>
  <g transform="translate(140,132) scale(9.5)">
    <path d="M4 14a1 1 0 0 1-.78-1.63l9.9-10.2a.5.5 0 0 1 .86.46l-1.92 6.02A1 1 0 0 0 13 10h7a1 1 0 0 1 .78 1.63l-9.9 10.2a.5.5 0 0 1-.86-.46l1.92-6.02A1 1 0 0 0 11 14z" fill="#ffffff"/>
  </g>
</svg>
